<?xml version="1.0" encoding="UTF-8"?>
<svg xmlns="http://www.w3.org/2000/svg" xmlns:xlink="http://www.w3.org/1999/xlink" width="14px" height="16px" viewBox="0 0 14 16" version="1.1">
<g>
<path style=" stroke:none;fill-rule:nonzero;fill: #9a9a9a;fill-opacity:1;" d="M 4.625 9 L 3.375 9 C 3.167969 9 3 8.832031 3 8.625 L 3 7.375 C 3 7.167969 3.167969 7 3.375 7 L 4.625 7 C 4.832031 7 5 7.167969 5 7.375 L 5 8.625 C 5 8.832031 4.832031 9 4.625 9 Z M 8 8.625 L 8 7.375 C 8 7.167969 7.832031 7 7.625 7 L 6.375 7 C 6.167969 7 6 7.167969 6 7.375 L 6 8.625 C 6 8.832031 6.167969 9 6.375 9 L 7.625 9 C 7.832031 9 8 8.832031 8 8.625 Z M 11 8.625 L 11 7.375 C 11 7.167969 10.832031 7 10.625 7 L 9.375 7 C 9.167969 7 9 7.167969 9 7.375 L 9 8.625 C 9 8.832031 9.167969 9 9.375 9 L 10.625 9 C 10.832031 9 11 8.832031 11 8.625 Z M 8 11.625 L 8 10.375 C 8 10.167969 7.832031 10 7.625 10 L 6.375 10 C 6.167969 10 6 10.167969 6 10.375 L 6 11.625 C 6 11.832031 6.167969 12 6.375 12 L 7.625 12 C 7.832031 12 8 11.832031 8 11.625 Z M 5 11.625 L 5 10.375 C 5 10.167969 4.832031 10 4.625 10 L 3.375 10 C 3.167969 10 3 10.167969 3 10.375 L 3 11.625 C 3 11.832031 3.167969 12 3.375 12 L 4.625 12 C 4.832031 12 5 11.832031 5 11.625 Z M 11 11.625 L 11 10.375 C 11 10.167969 10.832031 10 10.625 10 L 9.375 10 C 9.167969 10 9 10.167969 9 10.375 L 9 11.625 C 9 11.832031 9.167969 12 9.375 12 L 10.625 12 C 10.832031 12 11 11.832031 11 11.625 Z M 14 3.5 L 14 14.5 C 14 15.328125 13.328125 16 12.5 16 L 1.5 16 C 0.671875 16 0 15.328125 0 14.5 L 0 3.5 C 0 2.671875 0.671875 2 1.5 2 L 3 2 L 3 0.375 C 3 0.167969 3.167969 0 3.375 0 L 4.625 0 C 4.832031 0 5 0.167969 5 0.375 L 5 2 L 9 2 L 9 0.375 C 9 0.167969 9.167969 0 9.375 0 L 10.625 0 C 10.832031 0 11 0.167969 11 0.375 L 11 2 L 12.5 2 C 13.328125 2 14 2.671875 14 3.5 Z M 12.5 14.3125 L 12.5 5 L 1.5 5 L 1.5 14.3125 C 1.5 14.414062 1.585938 14.5 1.6875 14.5 L 12.3125 14.5 C 12.414062 14.5 12.5 14.414062 12.5 14.3125 Z M 12.5 14.3125 "/>
</g>
</svg>
